<svg width="65" height="64" viewBox="0 0 65 64" fill="none" xmlns="http://www.w3.org/2000/svg">
<g clip-path="url(#clip0_1_8291)">
<mask id="mask0_1_8291" style="mask-type:luminance" maskUnits="userSpaceOnUse" x="0" y="0" width="65" height="64">
<path d="M0.5 7.62939e-06H64.5V64H0.5V7.62939e-06Z" fill="white"/>
</mask>
<g mask="url(#mask0_1_8291)">
<path d="M36.1384 43.6266C45.0582 44.1071 51.8006 46.322 51.8006 48.9817C51.8006 51.9927 43.1602 54.4336 32.5018 54.4336C21.8433 54.4336 13.2031 51.9927 13.2031 48.9817C13.2031 46.322 19.9453 44.1071 28.8651 43.6266" stroke="black" stroke-width="4" stroke-miterlimit="10" stroke-linecap="round" stroke-linejoin="round"/>
<path d="M6.86169 46.5148C4.01794 48.077 2.37494 49.9183 2.37494 51.8901C2.37494 57.5427 15.8624 62.125 32.4999 62.125C49.1376 62.125 62.6249 57.5427 62.6249 51.8901C62.6249 49.9183 60.9821 48.077 58.1383 46.5148" stroke="black" stroke-width="4" stroke-miterlimit="10" stroke-linecap="round" stroke-linejoin="round"/>
<path d="M32.5004 21.3638C29.6668 21.3638 27.3696 19.0667 27.3696 16.2332C27.3696 13.3995 29.6668 11.1024 32.5004 11.1024C35.334 11.1024 37.6311 13.3995 37.6311 16.2332C37.6311 19.0667 35.334 21.3638 32.5004 21.3638ZM32.5004 1.87491C23.9095 1.87491 16.9453 8.83904 16.9453 17.4297C16.9453 23.3948 25.6608 38.4044 30.0441 45.5762C31.1671 47.4134 33.8336 47.4134 34.9566 45.5762C39.34 38.4044 48.0555 23.3948 48.0555 17.4297C48.0555 8.83904 41.0913 1.87491 32.5004 1.87491Z" stroke="black" stroke-width="4" stroke-miterlimit="10" stroke-linecap="round" stroke-linejoin="round"/>
</g>
</g>
<defs>
<clipPath id="clip0_1_8291">
<rect width="64" height="64" fill="white" transform="translate(0.5)"/>
</clipPath>
</defs>
</svg>
