<svg width="25" height="24" viewBox="0 0 25 24" fill="none" xmlns="http://www.w3.org/2000/svg">
<mask id="mask0_1001_2585" style="mask-type:luminance" maskUnits="userSpaceOnUse" x="0" y="0" width="25" height="24">
<path d="M0.5 0H24.5V24H0.5V0Z" fill="white"/>
</mask>
<g mask="url(#mask0_1001_2585)">
<path d="M20.5024 10.0002V7.33288C20.5024 5.86051 19.3088 4.66686 17.8365 4.66686H17.8358V10.0002H20.5024Z" stroke="black" stroke-width="2" stroke-miterlimit="10" stroke-linecap="round" stroke-linejoin="round"/>
<path d="M17.8309 4.66663C17.8309 3.19398 16.637 1.99995 15.1642 1.99995H9.83089C8.35815 1.99995 7.16425 3.19398 7.16425 4.66663V19.3333H17.8309V4.66663Z" stroke="black" stroke-width="2" stroke-miterlimit="10" stroke-linecap="round" stroke-linejoin="round"/>
<path d="M9.83057 8.66669H15.1639V4.66669H9.83057V8.66669Z" stroke="black" stroke-width="2" stroke-miterlimit="10" stroke-linecap="round" stroke-linejoin="round"/>
<path d="M20.4973 22C20.4973 21.2927 20.2163 20.6147 19.7162 20.1144C19.2161 19.6143 18.5378 19.3333 17.8306 19.3333H7.16393C6.45671 19.3333 5.77842 19.6143 5.27833 20.1144C4.77821 20.6147 4.49725 21.2927 4.49725 22H20.4973Z" stroke="black" stroke-width="2" stroke-miterlimit="10" stroke-linecap="round" stroke-linejoin="round"/>
<path d="M12.5027 11.3331C12.5027 11.3331 10.5027 12.9998 10.5027 14.6665C10.5027 15.7705 11.3989 16.6665 12.5027 16.6665C13.6066 16.6665 14.5027 15.7705 14.5027 14.6665C14.5027 12.9998 12.5027 11.3331 12.5027 11.3331Z" stroke="black" stroke-width="2" stroke-miterlimit="10" stroke-linecap="round" stroke-linejoin="round"/>
<path d="M17.8358 15.3332C17.8358 16.0695 18.4327 16.6665 19.1691 16.6665C19.9055 16.6665 20.5024 16.0695 20.5024 15.3332V9.99982" stroke="black" stroke-width="2" stroke-miterlimit="10" stroke-linecap="round" stroke-linejoin="round"/>
<path d="M2.5 22H22.5" stroke="black" stroke-width="2" stroke-miterlimit="10" stroke-linecap="round" stroke-linejoin="round"/>
</g>
</svg>
